<?xml version="1.0" encoding="utf-8"?>
<!-- Generator: Adobe Illustrator 22.0.1, SVG Export Plug-In . SVG Version: 6.00 Build 0)  -->
<svg version="1.1" id="Layer_1" xmlns="http://www.w3.org/2000/svg" xmlns:xlink="http://www.w3.org/1999/xlink" x="0px" y="0px"
	 viewBox="0 0 20 20" style="enable-background:new 0 0 20 20;" xml:space="preserve">
<style type="text/css">
	.st0{fill:#FFFFFF;}
</style>
<g>
	<circle class="st0" cx="10" cy="2" r="2"/>
	<path class="st0" d="M7,9h6c0.6,0,1-0.4,1-1V7.5C14,6.1,12.9,5,11.5,5h-3C7.1,5,6,6.1,6,7.5V8C6,8.6,6.4,9,7,9z"/>
	<circle class="st0" cx="4" cy="13" r="2"/>
	<path class="st0" d="M5.5,16h-3C1.1,16,0,17.1,0,18.5V19c0,0.6,0.4,1,1,1h6c0.6,0,1-0.4,1-1v-0.5C8,17.1,6.9,16,5.5,16z"/>
	<circle class="st0" cx="16" cy="13" r="2"/>
	<path class="st0" d="M17.5,16h-3c-1.4,0-2.5,1.1-2.5,2.5V19c0,0.6,0.4,1,1,1h6c0.6,0,1-0.4,1-1v-0.5C20,17.1,18.9,16,17.5,16z"/>
	<polygon class="st0" points="13.2,13.7 11,12.4 11,10 9,10 9,12.4 6.8,13.7 7.8,15.4 10,14.2 12.2,15.4 	"/>
</g>
</svg>
