<?xml version="1.0" encoding="utf-8"?>
<!-- Generator: Adobe Illustrator 22.0.1, SVG Export Plug-In . SVG Version: 6.00 Build 0)  -->
<svg version="1.1" id="Layer_1" xmlns="http://www.w3.org/2000/svg" xmlns:xlink="http://www.w3.org/1999/xlink" x="0px" y="0px"
	 viewBox="0 0 67.2 66.4" style="enable-background:new 0 0 67.2 66.4;" xml:space="preserve">
<style type="text/css">
	.st0{fill:#FFFFFF;}
</style>
<title>story_white</title>
<path class="st0" d="M29.7,66.4c1.6-7.3-2.4-14.7-9.4-17.3c4.3-2.8,5.5-8.5,2.7-12.8c-2.8-4.3-8.5-5.5-12.8-2.7s-5.5,8.5-2.7,12.8
	c0.7,1,1.6,1.9,2.6,2.6C2.9,51.5-1.3,59,0.4,66.4H29.7z"/>
<path class="st0" d="M39.5,29.8H59c3.6,0,6.5-2.9,6.5-6.5c0,0,0,0,0,0V8.2c0-3.6-2.9-6.5-6.5-6.5H24c-3.6,0-6.5,2.9-6.5,6.5v15.1
	c0,3.6,2.9,6.5,6.5,6.5c0,0,0,0,0,0h11.4v3.5L39.5,29.8z M24,0H59c4.5,0,8.2,3.7,8.2,8.2c0,0,0,0,0,0v15.1c0,4.5-3.7,8.2-8.2,8.2
	c0,0,0,0,0,0H40.1l-6.4,5.3v-5.3H24c-4.5,0-8.2-3.7-8.2-8.2V8.2C15.8,3.7,19.5,0,24,0z"/>
<rect x="24" y="7.3" class="st0" width="23.7" height="1.6"/>
<rect x="24" y="22" class="st0" width="23.7" height="1.6"/>
<rect x="49.2" y="7.3" class="st0" width="9.8" height="1.6"/>
<rect x="24" y="12.2" class="st0" width="9.8" height="1.6"/>
<rect x="24" y="17.1" class="st0" width="4.9" height="1.6"/>
<rect x="49.2" y="22" class="st0" width="9.8" height="1.6"/>
<rect x="30.5" y="17.1" class="st0" width="9.8" height="1.6"/>
<rect x="41.9" y="17.1" class="st0" width="17.1" height="1.6"/>
<rect x="35.4" y="12.2" class="st0" width="8.2" height="1.6"/>
<rect x="45.2" y="12.2" class="st0" width="13.9" height="1.6"/>
</svg>
