<?xml version="1.0" encoding="utf-8"?>
<!-- Generator: Adobe Illustrator 22.0.1, SVG Export Plug-In . SVG Version: 6.00 Build 0)  -->
<svg version="1.1" id="Layer_1" xmlns="http://www.w3.org/2000/svg" xmlns:xlink="http://www.w3.org/1999/xlink" x="0px" y="0px"
	 viewBox="0 0 512 512" style="enable-background:new 0 0 512 512;" xml:space="preserve">
<style type="text/css">
	.st0{fill:#BB0000;}
	.st1{fill:#FFFFFF;}
</style>
<g id="Layer_1_2_">
	<g id="Layer_1_1_">
		<path class="st0" d="M441.7,392.1L281,484.9c-15.5,8.9-34.5,8.9-50,0L70.3,392.1c-15.5-8.9-25-25.4-25-43.3V163.2
			c0-17.9,9.5-34.4,25-43.3L231,27.1c15.5-8.9,34.5-8.9,50,0l160.7,92.8c15.5,8.9,25,25.4,25,43.3v185.6
			C466.7,366.6,457.2,383.2,441.7,392.1z"/>
	</g>
</g>
<path class="st1" d="M371.4,161.7H140.6c-15.7,0-28.6,12.8-28.6,28.6v131.4c0,15.7,12.8,28.6,28.6,28.6h230.9
	c15.7,0,28.6-12.8,28.6-28.6V190.3C400,174.5,387.2,161.7,371.4,161.7z M381,190.3v131.4c0,1.5-0.4,2.9-1,4.1l-67.3-67.3l68.3-68.3
	C380.9,190.2,381,190.3,381,190.3z M131,321.7V190.3c0,0,0-0.1,0-0.1l68.3,68.3l-67.3,67.3C131.5,324.6,131,323.2,131,321.7z
	 M258.9,285.3c-1.6,1.6-4.3,1.6-5.9,0L148.6,180.8h214.9L258.9,285.3z M212.9,272l26.7,26.7c4.4,4.4,10.2,6.8,16.4,6.8
	c6.2,0,12-2.4,16.4-6.8l26.7-26.7l59.2,59.2H153.6L212.9,272z"/>
</svg>
