<?xml version="1.0" ?><!DOCTYPE svg  PUBLIC '-//W3C//DTD SVG 1.1//EN'  'http://www.w3.org/Graphics/SVG/1.1/DTD/svg11.dtd'><svg enable-background="new 0 0 512 512" version="1.1" viewBox="0 0 512 512" xml:space="preserve" xmlns="http://www.w3.org/2000/svg" xmlns:xlink="http://www.w3.org/1999/xlink"><g id="Layer_1"><g id="Layer_1_1_"><path d="M441.7,392.1L281,484.9c-15.5,8.9-34.5,8.9-50,0L70.3,392.1c-15.5-8.9-25-25.4-25-43.3V163.2    c0-17.9,9.5-34.4,25-43.3L231,27.1c15.5-8.9,34.5-8.9,50,0l160.7,92.8c15.5,8.9,25,25.4,25,43.3v185.6    C466.7,366.6,457.2,383.2,441.7,392.1z" fill="#BC2A8D"/></g></g><g id="Layer_2_1_"><g><path d="M378.7,256c0,17.2,0,34.5,0,51.7c0,29.2-14.2,49.5-39.6,62.6c-10.4,5.4-21.7,7.8-33.4,7.8    c-33.2,0-66.5,0.6-99.7-0.2c-26.7-0.6-48.1-12.3-62.5-35.3c-6-9.6-8.9-20.2-9-31.5c0-36.4-0.2-72.9,0-109.3    c0.2-25,12.4-43.4,33.1-56.5c12.3-7.7,25.9-11.2,40.4-11.3c32.3,0,64.6-0.2,97,0c25,0.2,45.7,9.9,61,30    c8.4,11.1,12.6,23.9,12.6,37.9C378.7,219.9,378.7,237.9,378.7,256z M360.5,256.2c0-18.1,0-36.3,0-54.4c0-9.8-2.9-18.8-8.7-26.6    c-11.3-15.2-26.9-22.7-45.5-22.9c-32.8-0.4-65.6-0.1-98.5-0.1c-10.2,0-19.9,2.4-28.7,7.5c-17,9.8-26.5,24.2-26.4,44.3    c0.1,35.3,0,70.7,0,106.1c0,9.9,2.9,19,8.8,26.9c11.3,15.2,26.9,22.6,45.5,22.8c33,0.4,66,0.1,98.9,0.1c7.5,0,14.8-1.6,21.8-4.4    c18.5-7.5,33.4-24.8,32.8-47.9C360.1,290.4,360.5,273.3,360.5,256.2z" fill="#FFFFFF"/><path d="M256.6,308.1c-31.9-0.1-57.3-25.5-57.2-57.2c0.1-30.9,26-56.1,57.6-56c31.6,0.1,57.2,25.6,57.1,56.9    C314.1,283,288.3,308.2,256.6,308.1z M257,213.1c-21.7,0-39.2,17.1-39.3,38.3c0,21.1,17.5,38.4,38.9,38.5    c21.7,0,39.3-17.1,39.4-38.2C296,230.5,278.5,213.1,257,213.1z" fill="#FFFFFF"/><path d="M332.9,190.3c0,6.9-5.5,12.6-12.2,12.5c-6.6,0-12-5.8-11.9-12.7c0-6.8,5.5-12.4,12.1-12.4    C327.5,177.7,332.9,183.4,332.9,190.3z" fill="#FFFFFF"/></g></g></svg>