<?xml version="1.0" ?><!DOCTYPE svg  PUBLIC '-//W3C//DTD SVG 1.1//EN'  'http://www.w3.org/Graphics/SVG/1.1/DTD/svg11.dtd'><svg enable-background="new 0 0 512 512" version="1.1" viewBox="0 0 512 512" xml:space="preserve" xmlns="http://www.w3.org/2000/svg" xmlns:xlink="http://www.w3.org/1999/xlink"><g id="Layer_1"><g id="Layer_1_1_"><path d="M441.7,392.1L281,484.9c-15.5,8.9-34.5,8.9-50,0L70.3,392.1c-15.5-8.9-25-25.4-25-43.3V163.2    c0-17.9,9.5-34.4,25-43.3L231,27.1c15.5-8.9,34.5-8.9,50,0l160.7,92.8c15.5,8.9,25,25.4,25,43.3v185.6    C466.7,366.6,457.2,383.2,441.7,392.1z" fill="#55ACEE"/></g></g><g id="Layer_2_1_"><g><path d="M133.3,333.5c27.5,2.6,51.8-4.3,74-20.9c-5.8-0.4-10.8-1.2-15.6-3c-12.7-4.6-22.2-12.8-28.3-24.8    c-0.9-1.7-1.6-3.5-2.4-5.3c-0.9-1.8,0-2.1,1.6-1.8c6.3,1,12.5,0.6,18.7-0.7c0.1,0,0.2-0.2,0.4-0.3c0.1-0.7-0.4-0.8-0.9-0.9    c-14-3.5-24.5-11.7-31.7-24.1c-4.1-7-6.2-14.6-6.4-22.7c0-2.1,0.5-2.3,2.3-1.5c6.2,3,12.7,4.8,20.2,5.1c-3.6-2.9-6.9-5.5-9.6-8.7    c-9.9-11.7-14-25.1-12-40.3c0.7-5.7,2.5-10.9,5-16.1c0.9-1.9,1.6-2.1,3-0.4c8.1,9.8,17.5,18.2,27.9,25.5    c7.8,5.5,16.1,10,24.8,13.8c11.3,4.9,23,8.2,35.1,10.2c4.1,0.6,8.2,0.8,12.2,1.3c1.9,0.2,2.2-0.5,1.8-2.2    c-2-10.5-0.7-20.8,3.9-30.4c7.2-15,19-24.6,35.4-28.1c16.2-3.4,30.6,0.6,43.4,10.9c4.1,6.2,9.3,2.6,14,1.3    c7.5-2.1,14.5-5.3,21.4-9c-3.5,11.3-10.5,19.9-20.2,26.7c9.4-0.6,18.1-3.5,27.4-7.2c-2.5,3.9-5,7-7.5,10    c-4.7,5.6-10.1,10.4-15.9,14.8c-1.2,0.9-1.5,1.8-1.5,3.2c0.3,10.2-0.5,20.3-2.4,30.3c-1.9,10.5-5,20.6-9.1,30.4    c-4.6,10.9-10.4,21.3-17.5,30.8c-8.8,11.9-19.2,22.3-31.3,30.9c-16.3,11.6-34.4,19.2-54,22.9c-12.3,2.4-24.7,3.1-37.3,2.5    c-9.7-0.5-19.2-2-28.6-4.4c-11.7-3-22.9-7.5-33.4-13.5C138,336.6,135.5,335.7,133.3,333.5z" fill="#FFFFFF"/></g></g></svg>