<?xml version="1.0" encoding="iso-8859-1"?>
<!-- Generator: Adobe Illustrator 23.0.1, SVG Export Plug-In . SVG Version: 6.00 Build 0)  -->
<svg version="1.1" id="Capa_1" xmlns="http://www.w3.org/2000/svg" xmlns:xlink="http://www.w3.org/1999/xlink" x="0px" y="0px"
	 viewBox="-49 141 512 512" style="enable-background:new -49 141 512 512;" xml:space="preserve">
<rect x="-68" y="139" style="fill:#1F4A7D;" width="536.333" height="514"/>
<path style="fill:#FFFFFF;" d="M367,325c0.005,22.091,17.917,39.996,40.008,39.992c22.091-0.004,39.996-17.917,39.992-40.008
	c-0.004-19.005-13.379-35.383-32-39.184V269c0-4.418-3.582-8-8-8h-88.408c-1.564-22.165-9.728-43.355-23.44-60.84l11.16-11.16h94.16
	c4.418,12.497,18.131,19.046,30.627,14.627c12.497-4.418,19.046-18.131,14.627-30.627c-4.418-12.497-18.131-19.046-30.627-14.627
	c-6.835,2.416-12.211,7.793-14.627,14.627H303c-2.122,0-4.156,0.844-5.656,2.344l-12.92,12.92
	c-44.458-42.816-115.208-41.485-158.025,2.973C108.201,210.133,97.23,234.829,95.408,261h-67.2L2.056,202.176
	c11.691-6.152,16.181-20.617,10.028-32.307s-20.617-16.181-32.307-10.028c-11.691,6.152-16.181,20.617-10.028,32.307
	c3.233,6.144,8.977,10.581,15.739,12.156l30.2,67.952c1.286,2.887,4.152,4.746,7.312,4.744h72.408
	c1.842,26.04,12.762,50.608,30.856,69.424L58.728,413.96c-43.669-6.543-84.374,23.553-90.917,67.222s23.553,84.374,67.222,90.917
	c1.318,0.198,2.641,0.362,3.967,0.493V613c0,4.418,3.582,8,8,8h73.472c4.418,12.497,18.131,19.046,30.627,14.627
	c12.497-4.418,19.046-18.131,14.627-30.627s-18.131-19.046-30.627-14.627c-6.835,2.417-12.211,7.793-14.627,14.627H55v-32.408
	c43.938-4.38,76.007-43.55,71.627-87.489c-2.964-29.732-22.26-55.331-50.027-66.367l61.6-61.6
	c40.116,31.586,96.582,31.813,136.952,0.552l44.384,56.496c-61.285,8.549-104.036,65.16-95.487,126.444
	c8.549,61.285,65.16,104.036,126.444,95.487s104.036-65.16,95.487-126.444c-7.509-53.83-52.569-94.507-106.884-96.487
	l-51.928-66.104c18.439-18.904,29.574-43.737,31.424-70.08H399v8.8C380.387,289.625,367.021,305.998,367,325z"/>
<circle style="fill:#1F4A7D;" cx="423" cy="181" r="8"/>
<circle style="fill:#1F4A7D;" cx="-9" cy="181" r="8"/>
<circle style="fill:#1F4A7D;" cx="143" cy="613" r="8"/>
<circle style="fill:#1F4A7D;" cx="47" cy="469" r="16"/>
<path style="fill:#1F4A7D;" d="M47,501c17.673,0,32,14.327,32,32v15.344c-19.771,11.546-44.229,11.546-64,0V533
	C15,515.327,29.327,501,47,501z"/>
<circle style="fill:#1F4A7D;" cx="407" cy="325" r="24"/>
<circle id="top" style="fill:#1F4A7D;" cx="208.012" cy="269.114" r="96.5"/>
<ellipse id="right" style="fill:#1F4A7D;" cx="335.055" cy="524.918" rx="95.945" ry="96.059"/>
<g id="right_persnn">
	<g>
		<defs>
			<rect id="SVGID_1_" x="268.512" y="447.888" width="133" height="173.94"/>
		</defs>
		<clipPath id="SVGID_2_">
			<use xlink:href="#SVGID_1_"  style="overflow:visible;"/>
		</clipPath>
		<g style="clip-path:url(#SVGID_2_);">
			<defs>
				<rect id="SVGID_3_" x="268.512" y="447.888" width="133" height="173.94"/>
			</defs>
			<clipPath id="SVGID_4_">
				<use xlink:href="#SVGID_3_"  style="overflow:visible;"/>
			</clipPath>
			<path style="clip-path:url(#SVGID_4_);fill:#FFFFFF;" d="M279.425,557.875c-2.933,4.463-6.643,11.267-8.9,20.198
				c-1.591,6.296-2.016,11.895-2.013,16.26v0.088c0,4.931,1.326,9.556,3.631,13.545c1.184,2.048,3.427,5.32,7.274,8.202
				c1.61,1.206,4.716,3.254,9.062,4.451c3.435,0.946,6.188,0.959,7.199,0.969c42.017,0.382,54.234,0.254,78.668,0
				c1.105-0.012,3.982-0.029,7.553-1.068c3.898-1.134,6.824-2.962,8.708-4.352 M390.607,616.168
				c2.637-2.116,8.087-7.139,10.123-15.272c0.597-2.385,0.787-4.587,0.782-6.475v-0.088c0.001-4.364-0.424-9.812-1.922-15.89
				c-0.854-3.469-1.912-6.548-3.002-9.21c-1.998-3.787-3.995-7.574-5.993-11.362c-2.733-4.156-7.178-9.903-13.94-15.345
				c-6.814-5.484-13.432-8.605-18.097-10.384c13.876-8.445,22.891-24.113,21.786-41.742c-1.438-22.937-20.156-41.362-43.112-42.46
				c-26.051-1.247-47.644,19.586-47.644,45.37c0,16.432,8.772,30.854,21.88,38.832c-13.195,5.01-24.389,14.107-32.043,25.732"/>
			<path style="clip-path:url(#SVGID_4_);fill:#1F4A7D;" d="M300.49,493.311c0-19.035,15.487-34.522,34.522-34.522
				c19.035,0,34.522,15.487,34.522,34.522c0,19.035-15.487,34.522-34.522,34.522C315.977,527.833,300.49,512.346,300.49,493.311"/>
			<path style="clip-path:url(#SVGID_4_);fill:#1F4A7D;" d="M295.678,610.686c-8.968,0-16.265-7.296-16.265-16.265v-0.088
				c0-30.658,24.941-55.598,55.598-55.598c30.658,0,55.598,24.94,55.598,55.598v0.088c0,8.968-7.296,16.265-16.265,16.265H295.678z"
				/>
			<path style="clip-path:url(#SVGID_4_);fill:#FFFFFF;" d="M350.493,500.574c-0.071,0.04-7.253,3.866-15.481,3.866
				c-8.215,0-15.359-3.798-15.495-3.872c-2.635-1.442-5.942-0.48-7.39,2.152c-1.454,2.637-0.491,5.954,2.146,7.407
				c0.386,0.213,9.607,5.218,20.739,5.218c11.132,0,20.353-5.005,20.739-5.218c2.637-1.454,3.6-4.77,2.149-7.407
				C356.446,500.085,353.133,499.123,350.493,500.574"/>
			<path style="clip-path:url(#SVGID_4_);fill:#FFFFFF;" d="M330.058,482.39c0,3.01-2.441,5.451-5.451,5.451
				c-3.013,0-5.451-2.441-5.451-5.451c0-3.012,2.438-5.451,5.451-5.451C327.617,476.939,330.058,479.377,330.058,482.39"/>
			<path style="clip-path:url(#SVGID_4_);fill:#FFFFFF;" d="M350.867,482.39c0,3.01-2.438,5.451-5.451,5.451
				c-3.01,0-5.451-2.441-5.451-5.451c0-3.012,2.441-5.451,5.451-5.451C348.429,476.939,350.867,479.377,350.867,482.39"/>
		</g>
	</g>
</g>
<path style="fill:#1F4A7D;" d="M266.032,592c17.522,17.955,41.97,29.105,69.024,29.105s51.502-11.15,69.024-29.105H266.032z"/>
<g>
	<g>
		<defs>
			<rect id="SVGID_5_" x="142.736" y="195.012" width="130" height="170.017"/>
		</defs>
		<clipPath id="SVGID_6_">
			<use xlink:href="#SVGID_5_"  style="overflow:visible;"/>
		</clipPath>
		<g style="clip-path:url(#SVGID_6_);">
			<defs>
				<rect id="SVGID_7_" x="142.736" y="195.012" width="130" height="170.017"/>
			</defs>
			<clipPath id="SVGID_8_">
				<use xlink:href="#SVGID_7_"  style="overflow:visible;"/>
			</clipPath>
			<path style="clip-path:url(#SVGID_8_);fill:#FFFFFF;" d="M153.403,302.518c-2.866,4.362-6.494,11.013-8.699,19.742
				c-1.555,6.154-1.971,11.627-1.968,15.893v0.086c0,4.82,1.296,9.341,3.549,13.239c1.157,2.002,3.349,5.2,7.11,8.017
				c1.574,1.179,4.61,3.181,8.858,4.35c3.358,0.925,6.048,0.938,7.037,0.947c41.069,0.373,53.011,0.249,76.893,0
				c1.08-0.011,3.892-0.028,7.383-1.044c3.81-1.108,6.67-2.895,8.512-4.254 M262.077,359.496c2.578-2.068,7.904-6.978,9.894-14.927
				c0.583-2.331,0.769-4.483,0.764-6.329v-0.086c0.001-4.266-0.414-9.591-1.878-15.531c-0.835-3.391-1.869-6.401-2.934-9.002
				c-1.953-3.702-3.905-7.404-5.858-11.105c-2.672-4.063-7.016-9.68-13.626-14.999c-6.661-5.36-13.129-8.411-17.689-10.15
				c13.563-8.255,22.374-23.569,21.294-40.8c-1.405-22.42-19.701-40.429-42.139-41.503c-25.463-1.219-46.569,19.144-46.569,44.347
				c0,16.061,8.574,30.158,21.386,37.956c-12.898,4.897-23.839,13.789-31.32,25.152"/>
			<path style="clip-path:url(#SVGID_8_);fill:#1F4A7D;" d="M173.993,239.411c0-18.606,15.138-33.743,33.743-33.743
				s33.743,15.138,33.743,33.743s-15.138,33.743-33.743,33.743S173.993,258.017,173.993,239.411"/>
			<path style="clip-path:url(#SVGID_8_);fill:#1F4A7D;" d="M169.289,355.138c-8.766-1-15.898-8.132-15.898-16.898v-0.086
				c0-29.967,24.378-54.344,54.344-54.344c29.967,0,54.344,24.378,54.344,54.344v0.086c0,8.766-7.132,15.898-15.898,16.898H169.289z
				"/>
			<path style="clip-path:url(#SVGID_8_);fill:#FFFFFF;" d="M222.867,246.509c-0.07,0.039-7.09,3.779-15.132,3.779
				c-8.03,0-15.013-3.712-15.145-3.785c-2.575-1.409-5.808-0.469-7.223,2.103c-1.421,2.578-0.48,5.819,2.098,7.24
				c0.377,0.208,9.391,5.1,20.271,5.1c10.881,0,19.894-4.892,20.271-5.1c2.578-1.421,3.519-4.662,2.101-7.24
				C228.686,246.032,225.448,245.091,222.867,246.509"/>
			<path style="clip-path:url(#SVGID_8_);fill:#FFFFFF;" d="M202.893,228.736c0,2.942-2.386,5.328-5.328,5.328
				c-2.945,0-5.328-2.386-5.328-5.328c0-2.945,2.383-5.328,5.328-5.328C200.507,223.408,202.893,225.791,202.893,228.736"/>
			<path style="clip-path:url(#SVGID_8_);fill:#FFFFFF;" d="M223.234,228.736c0,2.942-2.383,5.328-5.328,5.328
				c-2.942,0-5.328-2.386-5.328-5.328c0-2.945,2.386-5.328,5.328-5.328C220.85,223.408,223.234,225.791,223.234,228.736"/>
		</g>
	</g>
</g>
<path style="fill:#1F4A7D;" d="M144.767,342c16.937,14.709,39.051,23.614,63.245,23.614s46.307-8.905,63.245-23.614H144.767z"/>
<ellipse style="fill:#1F4A7D;" cx="48.75" cy="492.931" rx="64" ry="64.072"/>
<g id="left_person">
	<g>
		<defs>
			<rect id="SVGID_9_" x="11.25" y="458.623" width="75" height="98.086"/>
		</defs>
		<clipPath id="SVGID_10_">
			<use xlink:href="#SVGID_9_"  style="overflow:visible;"/>
		</clipPath>
		<g style="clip-path:url(#SVGID_10_);">
			<defs>
				<rect id="SVGID_11_" x="11.25" y="458.623" width="75" height="98.086"/>
			</defs>
			<clipPath id="SVGID_12_">
				<use xlink:href="#SVGID_11_"  style="overflow:visible;"/>
			</clipPath>
			<path style="clip-path:url(#SVGID_12_);fill:#FFFFFF;" d="M17.404,520.646c-1.654,2.517-3.746,6.354-5.019,11.39
				c-0.897,3.55-1.137,6.708-1.135,9.169v0.05c0,2.781,0.748,5.389,2.048,7.638c0.668,1.155,1.932,3,4.102,4.625
				c0.908,0.68,2.659,1.835,5.11,2.51c1.937,0.534,3.489,0.541,4.06,0.546c23.694,0.215,30.583,0.143,44.361,0
				c0.623-0.007,2.245-0.016,4.259-0.602c2.198-0.639,3.848-1.67,4.911-2.454 M80.101,553.517c1.487-1.193,4.56-4.026,5.708-8.612
				c0.336-1.345,0.444-2.586,0.441-3.651v-0.05c0-2.461-0.239-5.533-1.084-8.96c-0.482-1.956-1.078-3.693-1.693-5.193
				c-1.127-2.136-2.253-4.271-3.38-6.407c-1.541-2.344-4.048-5.584-7.861-8.653c-3.843-3.092-7.574-4.852-10.205-5.856
				c7.825-4.762,12.908-13.598,12.285-23.539c-0.811-12.934-11.366-23.324-24.311-23.944c-14.69-0.703-26.867,11.045-26.867,25.585
				c0,9.266,4.947,17.399,12.338,21.898c-7.441,2.825-13.753,7.955-18.069,14.511"/>
			<path style="clip-path:url(#SVGID_12_);fill:#1F4A7D;" d="M29.283,484.238c0-10.734,8.733-19.467,19.467-19.467
				s19.467,8.733,19.467,19.467c0,10.734-8.733,19.467-19.467,19.467S29.283,494.972,29.283,484.238"/>
			<path style="clip-path:url(#SVGID_12_);fill:#1F4A7D;" d="M26.569,550.426c-5.057,0-9.172-4.114-9.172-9.172v-0.05
				c0-17.289,14.064-31.352,31.352-31.352c17.289,0,31.352,14.064,31.352,31.352v0.05c0,5.057-4.114,9.172-9.172,9.172H26.569z"/>
			<path style="clip-path:url(#SVGID_12_);fill:#FFFFFF;" d="M57.48,488.333c-0.04,0.023-4.09,2.18-8.73,2.18
				c-4.633,0-8.661-2.142-8.738-2.184c-1.486-0.813-3.351-0.27-4.167,1.214c-0.82,1.487-0.277,3.357,1.21,4.177
				c0.218,0.12,5.418,2.942,11.695,2.942c6.277,0,11.477-2.822,11.695-2.942c1.487-0.82,2.03-2.69,1.212-4.177
				C60.837,488.057,58.969,487.515,57.48,488.333"/>
			<path style="clip-path:url(#SVGID_12_);fill:#FFFFFF;" d="M45.956,478.079c0,1.697-1.377,3.074-3.074,3.074
				c-1.699,0-3.074-1.377-3.074-3.074c0-1.699,1.375-3.074,3.074-3.074C44.58,475.005,45.956,476.38,45.956,478.079"/>
			<path style="clip-path:url(#SVGID_12_);fill:#FFFFFF;" d="M57.691,478.079c0,1.697-1.375,3.074-3.074,3.074
				c-1.697,0-3.074-1.377-3.074-3.074c0-1.699,1.377-3.074,3.074-3.074C56.316,475.005,57.691,476.38,57.691,478.079"/>
		</g>
	</g>
</g>
<path style="fill:#1F4A7D;" d="M12.388,546.57c10.019,6.589,21.988,10.433,34.856,10.433S72.08,553.159,82.1,546.57H12.388z"/>
</svg>
