<?xml version="1.0" encoding="utf-8"?>
<!-- Generator: Adobe Illustrator 22.0.1, SVG Export Plug-In . SVG Version: 6.00 Build 0)  -->
<svg version="1.1"
	 id="Layer_1" xmlns:cc="http://creativecommons.org/ns#" xmlns:dc="http://purl.org/dc/elements/1.1/" xmlns:inkscape="http://www.inkscape.org/namespaces/inkscape" xmlns:rdf="http://www.w3.org/1999/02/22-rdf-syntax-ns#" xmlns:sodipodi="http://sodipodi.sourceforge.net/DTD/sodipodi-0.dtd" xmlns:svg="http://www.w3.org/2000/svg"
	 xmlns="http://www.w3.org/2000/svg" xmlns:xlink="http://www.w3.org/1999/xlink" x="0px" y="0px" viewBox="0 0 88 68"
	 style="enable-background:new 0 0 88 68;" xml:space="preserve">
<style type="text/css">
	.st0{fill:#FFFFFF;}
</style>
<g transform="translate(0,-952.36218)">
	<path class="st0" d="M8,952.4c-4.4,0-8,3.6-8,8v52c0,4.4,3.6,8,8,8h72c4.4,0,8-3.6,8-8v-52c0-4.4-3.6-8-8-8
		C80,952.4,8,952.4,8,952.4z M8,956.4h72c2.3,0,4,1.7,4,4v52c0,2.3-1.7,4-4,4H8c-2.3,0-4-1.7-4-4v-52C4,958.1,5.7,956.4,8,956.4z
		 M6,958.4v8h12v-8H6z M70,958.4v8h12v-8H70z M44,968.5c-9.9,0-17.9,8.1-17.9,17.9c0,9.9,8,17.9,17.9,17.9s17.9-8,17.9-17.9
		S53.9,968.5,44,968.5z M6,970.4v8h12v-8H6z M70,970.4v8h12v-8H70z M44,972.5c7.7,0,13.9,6.2,13.9,13.9s-6.2,13.9-13.9,13.9
		s-13.9-6.2-13.9-13.9S36.3,972.5,44,972.5z M38,978.4v16l16-8L38,978.4z M6,982.4v8h12v-8H6z M70,982.4v8h12v-8H70z M6,994.4v8h12
		v-8H6z M70,994.4v8h12v-8H70z M6,1006.4v8h12v-8L6,1006.4L6,1006.4z M70,1006.4v8h12v-8L70,1006.4L70,1006.4z"/>
</g>
</svg>
