<?xml version="1.0" encoding="utf-8"?>
<!-- Generator: Adobe Illustrator 22.0.1, SVG Export Plug-In . SVG Version: 6.00 Build 0)  -->
<svg version="1.1" id="Layer_1" xmlns="http://www.w3.org/2000/svg" xmlns:xlink="http://www.w3.org/1999/xlink" x="0px" y="0px"
	 viewBox="0 0 89.9 89" style="enable-background:new 0 0 89.9 89;" xml:space="preserve">
<style type="text/css">
	.st0{fill:#FFFFFF;}
</style>
<path class="st0" d="M64.9,53.9L54.5,39l3.5-3.5c0.5-0.3,0.5-1,0.1-1.5l-1.4-2.2c-0.3-0.5-0.9-0.7-1.5-0.5l-4.5,2.1L39.6,17.5
	c0,0-12.2,20.7-33.5,37.7c-1.3,1-1.6,2.8-0.7,4.2v0.1L0,65.3l6.5,9.4l4.9-2l4.9,1.5c3.2,0.9,6.1,2.9,8.1,5.7l6.4,8.5
	c1.3,0.9,2.9,0.7,3.9-0.5l4.9-5c0.9-1,0.7-2.7-0.5-3.5l0,0c-2.2-0.1-6.4-1.2-7.9-3.6c-1.2-2-2.1-2.8-3.7-4c-0.9-0.7-1.6-1.5-2.2-2.4
	l-0.8-1.8C46.7,55.7,64.9,53.9,64.9,53.9z"/>
<path class="st0" d="M56.7,11.8l-0.6,6.8c9.1,0.8,15.8,8.8,15,17.9l6.8,0.6C79,24.3,69.5,13,56.7,11.8z M57.8,0l-0.6,7
	c15.5,1.4,26.9,15,25.6,30.6l7,0.6C91.5,18.9,77.2,1.8,57.8,0z"/>
</svg>
